<?xml version="1.0" standalone="no"?>
<!DOCTYPE svg PUBLIC "-//W3C//DTD SVG 20010904//EN"
 "http://www.w3.org/TR/2001/REC-SVG-20010904/DTD/svg10.dtd">
<svg version="1.0" xmlns="http://www.w3.org/2000/svg"
 width="470.000000pt" height="470.000000pt" viewBox="0 0 470.000000 470.000000"
 preserveAspectRatio="xMidYMid meet">
<metadata>
Created by potrace 1.11, written by Peter Selinger 2001-2013
</metadata>
<g transform="translate(0.000000,470.000000) scale(0.100000,-0.100000)"
fill="#000000" stroke="none">
<path d="M1252 4613 c-70 -3 -94 -7 -99 -18 -4 -12 -36 -15 -182 -15 -140 0
-181 -3 -197 -15 -11 -8 -42 -14 -75 -15 -76 0 -119 -10 -119 -26 0 -9 -12
-14 -34 -14 -42 0 -46 -9 -46 -113 0 -105 9 -157 26 -157 11 0 14 -27 14 -135
0 -129 1 -135 22 -146 13 -7 29 -18 36 -26 7 -7 29 -13 48 -13 l34 0 0 -165
c0 -140 -2 -165 -15 -165 -8 0 -15 -6 -15 -13 0 -14 -143 -157 -158 -157 -4 0
-15 -9 -25 -20 -9 -11 -26 -20 -37 -20 -11 0 -20 -4 -20 -10 0 -5 -15 -16 -32
-23 -33 -14 -118 -98 -118 -117 0 -5 -8 -18 -17 -29 -41 -43 -53 -67 -53 -103
0 -26 -4 -38 -14 -38 -8 0 -18 -14 -21 -32 -4 -18 -14 -42 -21 -53 -8 -11 -14
-45 -14 -84 0 -49 -4 -67 -17 -77 -15 -10 -19 -31 -21 -106 -2 -51 -8 -104
-15 -117 -17 -34 -17 -907 0 -942 6 -13 14 -70 16 -127 3 -76 8 -107 20 -120
13 -14 17 -38 17 -90 0 -49 4 -75 15 -86 8 -8 15 -24 15 -34 0 -31 11 -52 26
-52 9 0 14 -11 14 -30 0 -17 6 -33 14 -36 8 -3 17 -21 20 -40 4 -20 13 -34 21
-34 8 0 15 -8 15 -18 0 -20 18 -46 72 -104 21 -22 38 -44 38 -49 0 -5 7 -9 15
-9 8 0 15 -7 15 -15 0 -8 6 -15 14 -15 8 0 18 -9 21 -20 3 -11 10 -20 15 -20
6 0 25 -15 44 -32 45 -43 78 -68 89 -68 5 0 28 -16 51 -35 24 -19 48 -35 53
-35 5 0 20 -9 33 -20 13 -11 34 -20 47 -20 13 0 23 -6 23 -15 0 -8 14 -17 34
-21 19 -3 37 -12 40 -20 3 -8 19 -14 35 -14 16 0 31 -6 34 -14 3 -8 22 -18 41
-21 19 -4 40 -13 47 -21 6 -8 29 -14 50 -14 28 0 39 -4 39 -15 0 -10 16 -16
50 -21 27 -4 55 -13 61 -20 6 -8 30 -14 52 -14 23 0 48 -7 59 -16 10 -10 41
-19 70 -22 30 -3 57 -11 61 -18 5 -9 28 -14 67 -14 47 0 64 -4 80 -20 15 -15
33 -20 76 -20 36 0 61 -5 70 -15 11 -11 37 -15 89 -15 59 0 76 -3 83 -17 8
-13 29 -18 103 -21 57 -3 102 -10 114 -18 13 -9 49 -14 104 -14 66 0 89 -4
104 -18 17 -15 47 -17 317 -17 270 0 300 2 317 17 13 12 36 18 66 18 35 0 47
4 47 15 0 11 12 15 49 15 33 0 56 6 74 20 15 12 40 20 65 20 23 0 45 6 52 15
7 8 24 15 39 15 41 0 71 11 71 26 0 10 12 14 39 14 21 0 44 6 50 14 6 7 30 16
52 19 22 3 48 12 58 21 10 9 31 16 48 16 18 0 33 6 37 15 3 9 18 15 36 15 17
0 39 9 50 20 11 11 31 20 44 20 14 0 31 7 40 15 8 8 22 15 30 15 9 0 25 9 36
20 11 11 29 20 39 20 11 0 26 7 34 15 8 7 27 17 42 21 14 4 29 13 32 20 3 8
13 14 22 14 17 0 46 18 82 52 11 10 25 18 32 18 8 0 22 9 32 20 10 11 24 20
32 20 7 0 13 7 13 15 0 8 9 15 20 15 11 0 20 6 20 14 0 8 9 18 20 21 27 9 160
141 160 160 0 8 5 15 10 15 6 0 14 8 17 17 4 10 15 29 25 42 10 13 18 38 18
56 0 20 6 35 15 39 14 5 15 86 13 721 -2 528 -6 718 -15 723 -7 4 -12 49 -15
120 -2 94 -6 116 -20 126 -14 10 -18 28 -18 83 0 45 -5 76 -15 89 -8 10 -15
29 -15 42 0 12 -9 31 -20 42 -11 11 -20 31 -20 44 0 13 -6 26 -14 29 -7 3 -16
17 -20 31 -9 35 -52 76 -81 76 -16 0 -25 6 -25 16 0 9 -9 18 -20 21 -11 3 -20
12 -20 19 0 8 -5 14 -12 14 -17 0 -128 111 -128 127 0 7 -7 13 -15 13 -8 0
-15 9 -15 19 0 11 -7 26 -15 34 -8 8 -17 34 -21 57 -4 23 -12 47 -19 54 -8 7
-15 66 -19 161 -5 83 -12 155 -17 161 -6 8 -4 14 6 18 8 3 15 12 15 21 0 11
11 15 44 15 34 0 52 6 72 25 l26 24 -3 207 c-3 154 -7 208 -16 212 -8 2 -13
21 -13 47 0 63 -7 75 -46 75 -22 0 -34 5 -34 14 0 18 -31 26 -110 26 -41 0
-72 6 -84 15 -16 12 -56 15 -194 15 -155 0 -176 2 -188 18 -12 16 -77 17
-1106 18 -601 0 -1135 -1 -1186 -3z"/>
</g>
</svg>
