<?xml version="1.0" standalone="no"?>
<!DOCTYPE svg PUBLIC "-//W3C//DTD SVG 20010904//EN"
 "http://www.w3.org/TR/2001/REC-SVG-20010904/DTD/svg10.dtd">
<svg version="1.0" xmlns="http://www.w3.org/2000/svg"
 width="470.000000pt" height="470.000000pt" viewBox="0 0 470.000000 470.000000"
 preserveAspectRatio="xMidYMid meet">
<metadata>
Created by potrace 1.11, written by Peter Selinger 2001-2013
</metadata>
<g transform="translate(0.000000,470.000000) scale(0.100000,-0.100000)"
fill="#000000" stroke="none">
<path d="M1890 4580 c-96 -4 -290 -10 -430 -14 -140 -4 -309 -13 -375 -21 -66
-8 -165 -17 -220 -20 -55 -3 -127 -12 -160 -20 -33 -8 -76 -14 -96 -15 -28 0
-41 -6 -53 -25 -9 -14 -14 -30 -11 -34 3 -5 8 -67 11 -138 3 -70 9 -148 14
-173 5 -25 12 -66 15 -92 6 -43 10 -48 48 -67 66 -32 166 -60 237 -67 36 -4
90 -13 120 -20 30 -8 83 -14 119 -14 36 0 119 -7 186 -15 149 -19 712 -38
1110 -37 365 0 953 18 1055 32 41 6 138 15 215 20 77 5 154 13 170 19 17 5 61
12 100 16 38 3 76 12 85 20 8 7 33 17 55 21 49 9 111 47 120 73 3 11 1 57 -5
103 -6 46 -15 138 -19 204 -8 105 -13 126 -32 148 -16 18 -33 26 -55 26 -18 0
-61 6 -96 14 -35 8 -135 20 -222 26 -88 6 -164 14 -169 17 -16 10 -1047 42
-1302 41 -132 -1 -319 -5 -415 -8z"/>
<path d="M1310 3679 c-36 -4 -108 -13 -160 -19 -52 -6 -114 -17 -138 -25 -23
-8 -49 -15 -57 -15 -16 0 -109 -45 -147 -72 -15 -11 -44 -44 -64 -74 -42 -62
-138 -146 -239 -207 -162 -98 -213 -191 -277 -512 -43 -215 -58 -628 -34 -975
8 -129 20 -249 25 -265 5 -17 12 -56 15 -88 9 -86 52 -229 93 -307 68 -129
215 -283 368 -385 90 -60 151 -92 320 -170 17 -8 57 -24 90 -36 33 -12 69 -26
80 -30 11 -5 43 -16 70 -23 28 -8 75 -22 105 -31 176 -53 258 -73 510 -126
269 -56 294 -59 610 -90 186 -18 232 -19 340 -9 157 13 293 40 345 67 11 6 40
16 65 23 96 25 203 61 257 85 17 8 37 15 45 15 8 0 23 7 34 15 10 8 26 15 35
15 18 0 86 27 220 89 25 12 53 21 61 21 9 0 21 7 28 15 7 8 21 15 31 15 9 0
24 6 31 13 7 7 24 18 38 25 14 7 43 23 65 36 22 13 59 34 83 47 23 12 50 31
59 41 9 10 20 18 25 18 11 0 91 63 123 95 41 43 105 123 105 133 0 5 6 15 13
21 33 27 41 144 41 630 1 492 -14 860 -39 986 -8 39 -16 95 -19 126 -3 31 -13
69 -21 85 -8 16 -15 43 -15 60 0 17 -6 37 -14 43 -7 6 -16 24 -19 39 -6 31
-81 112 -103 112 -8 0 -22 9 -31 20 -10 11 -22 20 -28 20 -20 0 -185 183 -185
205 0 15 -44 102 -59 115 -55 53 -231 107 -426 131 -44 5 -129 16 -190 24
-110 15 -292 26 -715 45 -124 6 -353 17 -510 25 -299 16 -729 18 -840 4z
m-530 -961 c13 -5 58 -16 100 -23 41 -8 118 -24 170 -36 113 -25 204 -44 280
-59 30 -6 75 -16 100 -22 25 -6 77 -17 115 -25 39 -8 99 -20 135 -28 36 -7
101 -21 145 -30 44 -8 97 -20 118 -26 22 -6 63 -14 92 -19 111 -18 217 -89
257 -171 50 -107 48 -67 58 -780 7 -453 6 -685 0 -716 -17 -74 -82 -155 -162
-200 -47 -27 -179 -57 -221 -50 -46 8 -150 38 -162 47 -5 4 -27 11 -49 14 -21
4 -52 13 -70 20 -29 13 -63 22 -161 47 -22 5 -54 16 -72 24 -17 8 -41 15 -53
15 -12 0 -31 5 -42 11 -12 7 -44 18 -72 25 -28 7 -82 22 -121 34 -38 12 -88
26 -110 31 -22 6 -49 15 -60 22 -11 6 -38 14 -60 18 -22 4 -53 12 -70 18 -65
23 -132 43 -174 52 -24 5 -49 13 -55 18 -6 5 -22 12 -36 16 -52 16 -142 97
-188 169 -23 36 -27 56 -33 162 -14 238 -17 309 -13 279 3 -16 11 -35 18 -40
7 -6 17 -21 21 -35 12 -38 61 -96 108 -128 65 -43 121 -62 189 -62 95 0 141
39 184 154 43 114 92 464 95 666 2 183 6 168 -48 175 -27 3 -74 12 -105 20
-32 8 -69 15 -82 15 -13 0 -62 9 -108 19 -46 11 -104 21 -130 24 -58 6 -63 -4
-53 -101 9 -79 15 -90 64 -97 20 -3 54 -11 76 -17 22 -6 67 -14 100 -17 l60
-6 3 -111 c3 -107 -4 -176 -28 -309 -26 -140 -85 -206 -156 -172 -18 9 -40 30
-48 46 -10 19 -26 32 -46 36 -17 4 -43 13 -57 20 -30 16 -53 10 -54 -14 -1 -9
-4 -6 -9 9 -4 14 -9 86 -9 160 -1 74 -6 198 -11 275 -24 358 -24 365 -1 439
19 62 61 131 101 164 34 29 98 57 140 63 54 7 165 0 200 -13z"/>
<path d="M1168 2083 c-41 -12 -51 -20 -67 -56 -19 -40 -19 -42 -1 -78 12 -22
33 -43 56 -54 33 -15 44 -16 92 -5 43 9 59 9 77 0 24 -13 49 -67 61 -130 l7
-35 -51 53 -51 52 -67 0 c-73 0 -109 -16 -174 -77 -61 -56 -111 -183 -109
-279 0 -61 29 -169 55 -210 31 -51 117 -114 154 -114 26 0 55 15 93 47 31 25
47 23 47 -8 0 -33 29 -78 60 -94 28 -14 33 -14 75 5 25 11 45 25 45 31 0 6
-14 22 -30 36 -43 36 -61 76 -63 138 -1 46 7 82 44 200 5 17 14 80 20 141 23
247 -26 401 -141 438 -57 19 -69 19 -132 -1z m121 -430 c29 -26 31 -31 31
-100 0 -61 -5 -84 -31 -138 -17 -36 -43 -74 -60 -86 -29 -20 -30 -20 -60 -2
-42 25 -79 96 -79 153 0 49 35 134 66 162 49 43 92 46 133 11z"/>
<path d="M1577 1933 c-11 -10 -8 -48 4 -60 32 -32 16 -313 -42 -707 -11 -73
-10 -79 9 -98 12 -13 35 -21 58 -22 l38 -1 23 130 c13 72 30 153 38 180 51
186 80 254 123 293 31 28 35 27 66 -2 24 -21 26 -30 26 -107 -1 -46 -5 -104
-11 -129 -5 -25 -16 -85 -24 -135 -7 -49 -19 -106 -24 -125 -18 -57 -14 -134
7 -153 26 -24 51 -21 61 6 13 34 30 114 40 197 13 97 44 243 65 300 28 74 66
101 96 65 16 -20 6 -174 -14 -213 -7 -15 -16 -47 -20 -72 -4 -25 -14 -65 -22
-89 -8 -25 -16 -79 -17 -122 -1 -71 1 -80 25 -103 15 -16 43 -29 69 -34 99
-17 124 10 60 66 -32 30 -41 44 -42 72 -1 49 19 187 30 209 6 10 15 56 21 102
5 46 14 100 20 119 15 52 12 146 -5 187 -26 62 -42 73 -103 73 -48 0 -58 -4
-87 -33 l-33 -33 -47 48 c-45 46 -48 48 -104 48 -35 0 -65 -6 -77 -15 -33 -25
-52 -19 -60 21 -15 81 -113 172 -147 137z"/>
</g>
</svg>
